<svg width="256" height="256" viewBox="0 0 100 100" fill="none" xmlns="http://www.w3.org/2000/svg" role="img" aria-label="Obsidian">
  <defs>
    <linearGradient id="body" x1="22" y1="6" x2="78" y2="96" gradientUnits="userSpaceOnUse">
      <stop offset="0" stop-color="#0384fc"></stop>
      <stop offset="1" stop-color="#bc03fc"></stop>
    </linearGradient>
    <linearGradient id="rim" x1="34" y1="36" x2="66" y2="72" gradientUnits="userSpaceOnUse">
      <stop offset="0" stop-color="#ffffff" stop-opacity="0.65"></stop>
      <stop offset="1" stop-color="#000000" stop-opacity="0.30"></stop>
    </linearGradient>
    <mask id="hole">
      <rect width="100" height="100" fill="white"></rect>
      <circle cx="50" cy="53" r="17" fill="black"></circle>
    </mask>
  </defs>

  <g mask="url(#hole)">
    <path d="M50 3 L83 33 L73 74 L50 97 L27 74 L17 33 Z" fill="url(#body)"></path>
    <g stroke="#ffffff" stroke-opacity="0.30" stroke-width="1.1" fill="none">
      <path d="M50 3 L50 30"></path>
      <path d="M17 33 L33 44"></path>
      <path d="M83 33 L67 44"></path>
      <path d="M27 74 L40 64"></path>
      <path d="M73 74 L60 64"></path>
      <path d="M50 97 L50 72"></path>
    </g>
    <path d="M50 3 L17 33 L34 44 L50 28 Z" fill="#ffffff" fill-opacity="0.20"></path>
    <path d="M83 33 L73 74 L60 64 L67 44 Z" fill="#000000" fill-opacity="0.12"></path>
  </g>

  <circle cx="50" cy="53" r="19" fill="none" stroke="url(#rim)" stroke-width="4"></circle>
</svg>
